<svg width="411" height="400" viewBox="0 0 411 400" fill="none" xmlns="http://www.w3.org/2000/svg">
<path d="M111.187 148.085C102.26 163.323 97.1426 181.064 97.1426 200C97.1426 256.806 143.193 302.857 199.999 302.857C224.553 302.857 247.097 294.251 264.781 279.894C255.576 295.302 250.285 313.319 250.285 332.572C250.285 353.22 256.37 372.445 266.843 388.556C245.941 395.966 223.441 400 199.999 400C89.5426 400 0 310.457 0 200C6.43566e-06 187.686 1.11334 175.631 3.24414 163.932C15.8919 169.488 29.8714 172.572 44.5713 172.572C69.9821 172.572 93.2392 163.355 111.187 148.085ZM199.999 0C310.455 0 399.998 89.543 399.998 200C399.998 213.389 398.682 226.471 396.173 239.123C383.081 233.084 368.505 229.715 353.142 229.715C328.587 229.715 306.043 238.319 288.358 252.677C297.564 237.269 302.855 219.253 302.855 200C302.855 143.194 256.805 97.1426 199.999 97.1426C174.589 97.1426 151.331 106.358 133.384 121.628C142.31 106.39 147.429 88.6503 147.429 69.7148C147.429 48.5629 141.042 28.9031 130.095 12.5557C151.855 4.43711 175.409 1.83638e-05 199.999 0Z" fill="url(#paint0_linear_2008_565)"/>
<ellipse cx="353.141" cy="332.571" rx="57.1426" ry="57.1429" fill="#CD202C"/>
<defs>
<linearGradient id="paint0_linear_2008_565" x1="199.999" y1="0" x2="199.999" y2="400" gradientUnits="userSpaceOnUse">
<stop stop-color="#7AA5A9"/>
<stop offset="1" stop-color="#357278"/>
</linearGradient>
</defs>
</svg>
