<svg width="737" height="200" viewBox="0 0 737 200" fill="none" xmlns="http://www.w3.org/2000/svg">
<path d="M55.6025 74.0312C51.1347 81.6532 48.5713 90.5269 48.5713 100C48.5713 128.403 71.5968 151.429 100 151.429C112.282 151.429 123.556 147.12 132.4 139.937C127.793 147.643 125.144 156.655 125.144 166.286C125.144 176.61 128.188 186.221 133.424 194.276C122.972 197.982 111.722 200 100 200C44.7715 200 0 155.228 0 100C2.75818e-06 93.8427 0.557623 87.8156 1.62305 81.9658C7.94681 84.7436 14.9364 86.2861 22.2861 86.2861C34.9965 86.286 46.6275 81.6718 55.6025 74.0312ZM100 0C155.228 0 200 44.7715 200 100C200 106.694 199.34 113.235 198.086 119.561C191.54 116.542 184.253 114.857 176.571 114.857C164.29 114.858 153.016 119.165 144.172 126.349C148.779 118.642 151.429 109.631 151.429 100C151.429 71.5968 128.403 48.5713 100 48.5713C87.2882 48.5713 75.6552 53.1852 66.6797 60.8271C71.1484 53.2047 73.7148 44.3315 73.7148 34.8574C73.7148 24.282 70.5211 14.4528 65.0479 6.2793C75.928 2.21994 87.7047 9.18067e-07 100 0Z" fill="url(#paint0_linear_2092_26)"/>
<path d="M176.571 194.857C192.351 194.857 205.142 182.066 205.142 166.286C205.142 150.506 192.351 137.715 176.571 137.715C160.791 137.715 148 150.506 148 166.286C148 182.066 160.791 194.857 176.571 194.857Z" fill="#CD202C"/>
<path d="M240.9 141.9C243.767 141.9 246.133 142.3 248 143.1V151.1C245.6 150.367 243.033 150 240.3 150C236.233 150 232.867 151.767 230.2 155.3C227.467 158.633 226.1 162.733 226.1 167.6V195H218.2V143.3H226.1V152.3C227.5 149.233 229.3 146.867 231.5 145.2C234.233 143 237.367 141.9 240.9 141.9ZM254.723 122.2H262.723V152.8C266.723 145.533 272.423 141.9 279.823 141.9C287.223 141.9 292.99 144.667 297.123 150.2C300.99 155.267 302.923 161.533 302.923 169C302.923 176.733 300.99 183.133 297.123 188.2C292.79 193.667 286.89 196.4 279.423 196.4C271.49 196.4 265.757 193.1 262.223 186.5V195H254.723V122.2ZM278.123 148.5C273.323 148.5 269.557 150.367 266.823 154.1C263.89 157.7 262.423 162.567 262.423 168.7V169.7C262.423 175.5 263.723 180.2 266.323 183.8C269.123 187.8 273.157 189.8 278.423 189.8C283.957 189.8 288.157 187.767 291.023 183.7C293.49 179.967 294.723 175.067 294.723 169C294.723 162.8 293.423 157.967 290.823 154.5C287.957 150.5 283.723 148.5 278.123 148.5ZM319.917 123.8C321.651 123.8 323.084 124.367 324.217 125.5C325.417 126.5 326.017 127.9 326.017 129.7C326.017 131.367 325.417 132.8 324.217 134C322.951 135.133 321.517 135.7 319.917 135.7C318.317 135.7 316.884 135.133 315.617 134C314.484 132.867 313.917 131.433 313.917 129.7C313.917 127.833 314.484 126.433 315.617 125.5C316.751 124.367 318.184 123.8 319.917 123.8ZM315.917 143.3H323.917V195H315.917V143.3ZM352.703 126.6V143.3H365.503V150H352.703V182.9C352.703 184.9 353.07 186.267 353.803 187C354.536 187.867 355.803 188.3 357.603 188.3H364.203V195H356.403C352.136 195 349.103 193.9 347.303 191.7C345.636 189.767 344.803 186.833 344.803 182.9V150H334.403V143.3H344.803V129.9L352.703 126.6Z" fill="#357278"/>
<path d="M377.14 122.172H391.114L415.9 179.292H416.308L440.992 122.172H454.966V195H443.032V144.816H442.624L421.204 195H410.902L389.482 144.816H389.074V195H377.14V122.172ZM489.985 122.172H503.551L531.397 195H518.647L512.017 176.742H481.519L474.889 195H462.139L489.985 122.172ZM485.089 166.95H508.447L497.023 135.024H496.615L485.089 166.95ZM532.897 122.172H592.567V132.372H568.699V195H556.765V132.372H532.897V122.172ZM632.881 120.744C641.517 120.744 648.589 122.988 654.097 127.476C659.333 131.692 662.529 137.54 663.685 145.02H652.057C650.833 140.26 648.555 136.758 645.223 134.514C642.027 132.338 637.845 131.25 632.677 131.25C624.993 131.25 619.247 133.868 615.439 139.104C611.903 143.728 610.135 150.256 610.135 158.688C610.135 167.256 611.869 173.852 615.337 178.476C619.145 183.44 625.027 185.922 632.983 185.922C638.151 185.922 642.401 184.664 645.733 182.148C649.201 179.428 651.649 175.28 653.077 169.704H664.705C663.073 178.272 659.265 184.936 653.281 189.696C647.705 194.184 640.973 196.428 633.085 196.428C620.981 196.428 611.937 192.62 605.953 185.004C600.785 178.544 598.201 169.772 598.201 158.688C598.201 147.74 600.887 138.934 606.259 132.27C612.311 124.586 621.185 120.744 632.881 120.744ZM675.968 122.172H687.902V152.568H724.826V122.172H736.76V195H724.826V162.768H687.902V195H675.968V122.172Z" fill="url(#paint1_linear_2092_26)"/>
<defs>
<linearGradient id="paint0_linear_2092_26" x1="100" y1="0" x2="100" y2="200" gradientUnits="userSpaceOnUse">
<stop stop-color="#7AA5A9"/>
<stop offset="1" stop-color="#357278"/>
</linearGradient>
<linearGradient id="paint1_linear_2092_26" x1="557" y1="122" x2="557" y2="195" gradientUnits="userSpaceOnUse">
<stop stop-color="#FF4754"/>
<stop offset="1" stop-color="#CD202C"/>
</linearGradient>
</defs>
</svg>
